<svg width="90" height="67" viewBox="0 0 90 67" fill="none" xmlns="http://www.w3.org/2000/svg">
<path d="M-4.57093e-05 66.105L0.0449544 60.075L29.34 33.615C31.86 31.335 33.525 29.175 34.335 27.135C35.175 25.065 35.595 22.905 35.595 20.655C35.595 17.985 34.965 15.57 33.705 13.41C32.445 11.25 30.75 9.54002 28.62 8.28002C26.49 6.99002 24.105 6.34502 21.465 6.34502C18.705 6.34502 16.245 7.00502 14.085 8.32502C11.925 9.64502 10.215 11.385 8.95496 13.545C7.72496 15.705 7.12495 18.06 7.15495 20.61H0.404954C0.404954 16.68 1.33495 13.155 3.19495 10.035C5.05495 6.91502 7.57495 4.47002 10.755 2.70002C13.935 0.900022 17.535 2.31266e-05 21.555 2.31266e-05C25.485 2.31266e-05 29.01 0.930022 32.13 2.79002C35.28 4.62002 37.755 7.11002 39.555 10.26C41.385 13.38 42.3 16.86 42.3 20.7C42.3 23.4 41.97 25.785 41.31 27.855C40.68 29.895 39.675 31.8 38.295 33.57C36.945 35.31 35.22 37.11 33.12 38.97L7.10995 62.46L6.07495 59.76H42.3V66.105H-4.57093e-05ZM44.1281 66.15L63.1181 41.58L44.5331 17.55H52.4531L66.9881 36.495L81.3881 17.55H89.3081L70.7231 41.58L89.7581 66.15H81.7931L66.9881 46.665L52.0931 66.15H44.1281Z" fill="#394508"/>
</svg>
