<svg width="24" height="29" viewBox="0 0 24 29" fill="none" xmlns="http://www.w3.org/2000/svg">
<g clip-path="url(#clip0_24_57)">
<path d="M23.64 4.31997L12.55 0.0599745C12.36 -0.0100255 12.14 -0.0200255 11.95 0.0599745L0.19 4.36997C0.07 4.44997 0 4.56997 0 4.69997V17.49C0 20.25 1.14 22.44 3.2 23.67L11.7 28.73C11.86 28.83 12.07 28.83 12.24 28.73L20.73 23.67C22.8 22.44 23.93 20.25 23.93 17.49V4.70997C23.93 4.53997 23.82 4.38997 23.64 4.31997ZM22.97 17.49C22.97 18.92 22.61 21.53 20.2 22.96L11.97 27.87L3.74 22.96H3.73L3.51 22.83C1.3 21.36 0.96 18.87 0.96 17.49V4.98997L12.25 0.759974L22.97 4.98997V17.49Z" fill="#394508"/>
<path d="M17.59 10.6501C17.59 10.7601 17.54 10.8601 17.46 10.9401L11.1 16.9601C10.92 17.1301 10.59 17.1301 10.4 16.9601L7.09002 13.8301C7.01002 13.7501 6.96002 13.6401 6.96002 13.5301C6.96002 13.4301 7.01002 13.3201 7.09002 13.2401C7.19002 13.1501 7.32002 13.1101 7.44002 13.1101C7.57002 13.1101 7.70002 13.1501 7.80002 13.2401L10.75 16.0401L16.76 10.3601C16.95 10.1801 17.27 10.1801 17.46 10.3601C17.54 10.4401 17.59 10.5401 17.59 10.6501Z" fill="#394508"/>
</g>
<defs>
<clipPath id="clip0_24_57">
<rect width="23.93" height="28.81" fill="white"/>
</clipPath>
</defs>
</svg>
