<svg width="86" height="21" viewBox="0 0 86 21" fill="none" xmlns="http://www.w3.org/2000/svg">
<path d="M35.2094 7.67573C35.2094 7.90823 35.1565 8.1513 35.0508 8.40494C34.7761 9.08131 34.2371 9.56217 33.4339 9.84751C33.8566 9.92149 34.2371 10.0483 34.5753 10.228C35.4102 10.6718 35.8276 11.3482 35.8276 12.2571C35.8276 12.7961 35.6638 13.2928 35.3362 13.7472C34.7021 14.6032 33.6981 15.0312 32.3242 15.0312H27.6319V14.6191H28.9001V5.93196H27.6319V5.5198H32.2291C32.916 5.5198 33.5079 5.63605 34.0046 5.86855C34.8078 6.24901 35.2094 6.8514 35.2094 7.67573ZM31.7377 5.93196H30.4219V9.65728H31.7377C32.1287 9.65728 32.4722 9.56745 32.7681 9.38779C33.3282 9.06017 33.6083 8.53176 33.6083 7.80255C33.6083 7.67573 33.5977 7.54891 33.5766 7.42209C33.4497 6.42867 32.8368 5.93196 31.7377 5.93196ZM32.0706 10.0853H30.4219V14.6191H32.0864C32.5514 14.6191 32.953 14.487 33.2912 14.2228C33.8513 13.7789 34.1314 13.1237 34.1314 12.2571C34.1314 11.9189 34.0733 11.6018 33.957 11.3059C33.64 10.4922 33.0112 10.0853 32.0706 10.0853ZM39.3716 14.6349C39.4244 14.6349 39.4773 14.6402 39.5301 14.6508C39.6781 14.6719 39.752 14.7987 39.752 15.0312H35.9633V14.6349C36.3121 14.6349 36.571 14.6085 36.7401 14.5557C37.0254 14.4606 37.1681 14.1752 37.1681 13.6996V5.12349H35.9633V4.72718H38.5155V14.6349H39.3716ZM41.2986 11.6388C41.3092 13.7208 41.975 14.7723 43.296 14.7935C44.5748 14.7829 45.2194 13.7102 45.23 11.5754C45.2194 9.54631 44.5642 8.52119 43.2643 8.50005C41.9644 8.51062 41.3092 9.55688 41.2986 11.6388ZM43.3118 8.10374C44.0622 8.10374 44.7333 8.30454 45.3251 8.70614C46.2763 9.36137 46.7518 10.3337 46.7518 11.623C46.7518 12.5953 46.4453 13.4143 45.8324 14.0801C45.156 14.8199 44.2947 15.1898 43.2484 15.1898C42.4875 15.1898 41.8006 14.9678 41.1876 14.524C40.2576 13.8476 39.7926 12.8648 39.7926 11.5754C39.7926 10.6348 40.0885 9.84223 40.6803 9.19756C41.3673 8.46835 42.2445 8.10374 43.3118 8.10374ZM48.4886 11.6388C48.4992 13.7208 49.165 14.7723 50.486 14.7935C51.7648 14.7829 52.4094 13.7102 52.42 11.5754C52.4094 9.54631 51.7542 8.52119 50.4543 8.50005C49.1544 8.51062 48.4992 9.55688 48.4886 11.6388ZM50.5019 8.10374C51.2522 8.10374 51.9233 8.30454 52.5151 8.70614C53.4663 9.36137 53.9418 10.3337 53.9418 11.623C53.9418 12.5953 53.6354 13.4143 53.0224 14.0801C52.346 14.8199 51.4847 15.1898 50.4385 15.1898C49.6775 15.1898 48.9906 14.9678 48.3776 14.524C47.4476 13.8476 46.9826 12.8648 46.9826 11.5754C46.9826 10.6348 47.2785 9.84223 47.8704 9.19756C48.5573 8.46835 49.4345 8.10374 50.5019 8.10374ZM57.1371 14.6349C57.1899 14.6349 57.2427 14.6402 57.2956 14.6508C57.4435 14.6719 57.5175 14.7987 57.5175 15.0312H54.0141V14.6349C54.3206 14.6349 54.5531 14.6138 54.7116 14.5715C55.0076 14.4764 55.1555 14.1858 55.1555 13.6996V8.67443H54.0141V8.27812H56.4237L56.4871 9.75239C56.5822 9.54103 56.6932 9.34023 56.82 9.15C57.3273 8.4525 57.9825 8.10374 58.7857 8.10374C58.9865 8.10374 59.182 8.14073 59.3722 8.21471C60.0063 8.45778 60.4238 8.97563 60.6246 9.76825C60.6774 9.64143 60.7356 9.51989 60.799 9.40364C61.2957 8.53704 61.9879 8.10374 62.8756 8.10374C63.2455 8.10374 63.589 8.19886 63.906 8.38909C64.6141 8.83295 64.9682 9.58859 64.9682 10.656V14.6349H65.7132C65.7766 14.6349 65.8295 14.6402 65.8717 14.6508C66.0303 14.6719 66.1095 14.7987 66.1095 15.0312H62.5903V14.6349C62.9073 14.6349 63.1398 14.6085 63.2878 14.5557C63.5097 14.4606 63.6207 14.1752 63.6207 13.6996V10.4975C63.6207 10.1698 63.5731 9.87921 63.478 9.62558C63.2667 9.06546 62.8968 8.7854 62.3684 8.7854C62.1887 8.7854 62.0038 8.83295 61.8135 8.92807C61.264 9.20284 60.9047 9.72597 60.7356 10.4975V10.6718V14.6349H61.3538C61.4172 14.6349 61.4701 14.6402 61.5123 14.6508C61.6709 14.6719 61.7501 14.7987 61.7501 15.0312H58.3577V14.6349C58.6747 14.6349 58.9072 14.6085 59.0552 14.5557C59.2666 14.4606 59.3722 14.1752 59.3722 13.6996V10.4975C59.3722 10.2015 59.3353 9.93206 59.2613 9.68899C59.0711 9.10773 58.7223 8.8171 58.215 8.8171C57.9402 8.8171 57.6708 8.9175 57.4065 9.1183C56.8253 9.5516 56.5241 10.228 56.503 11.1474V14.6349H57.1371ZM69.2572 14.6349C69.3206 14.6349 69.3734 14.6402 69.4157 14.6508C69.5742 14.6719 69.6535 14.7987 69.6535 15.0312H65.9599V14.6349C66.2769 14.6349 66.5147 14.6138 66.6732 14.5715C67.0009 14.4764 67.1647 14.1858 67.1647 13.6996V8.67443H65.9599V8.27812H68.5121V14.6349H69.2572ZM68.6865 6.01122C68.6865 6.14861 68.6548 6.286 68.5914 6.42339C68.4223 6.77214 68.1475 6.94652 67.7671 6.94652C67.6297 6.94652 67.4976 6.9201 67.3707 6.86725C67.0114 6.69816 66.8318 6.41282 66.8318 6.01122C66.8318 5.87384 66.8635 5.73645 66.9269 5.59906C67.096 5.25031 67.376 5.07593 67.7671 5.07593C67.9044 5.07593 68.0418 5.10764 68.1792 5.17105C68.5174 5.35071 68.6865 5.63077 68.6865 6.01122ZM72.706 14.6349C72.7694 14.6349 72.8223 14.6402 72.8646 14.6508C73.0231 14.6719 73.1023 14.7987 73.1023 15.0312H69.5673V14.6349C69.8737 14.6349 70.1062 14.6138 70.2648 14.5715C70.5607 14.4764 70.7086 14.1858 70.7086 13.6996V8.67443H69.5673V8.27812H71.9768L72.0402 9.76825C72.1459 9.50404 72.2886 9.26625 72.4683 9.05489C72.9861 8.42079 73.636 8.10374 74.4181 8.10374C74.788 8.10374 75.1367 8.19357 75.4644 8.37323C76.2253 8.79597 76.6057 9.56217 76.6057 10.6718V14.6349H77.3508C77.4142 14.6349 77.467 14.6402 77.5093 14.6508C77.6678 14.6719 77.7471 14.7987 77.7471 15.0312H74.1645V14.6349C74.4709 14.6349 74.6982 14.6085 74.8461 14.5557C75.1209 14.4606 75.2583 14.1752 75.2583 13.6996V10.4975C75.2583 10.2227 75.2213 9.96904 75.1473 9.73654C74.9359 9.12358 74.5079 8.8171 73.8633 8.8171C73.5885 8.8171 73.3137 8.90165 73.0389 9.07074C72.4048 9.49347 72.0772 10.1857 72.0561 11.1474V14.6349H72.706ZM79.3254 10.6401C79.3254 10.7352 79.3254 10.8304 79.3254 10.9255C79.3888 12.1937 79.8855 12.8278 80.8155 12.8278C81.7032 12.7644 82.1947 12.0351 82.2898 10.6401C82.2898 10.4499 82.2845 10.2755 82.2739 10.117C82.1682 9.03904 81.6821 8.50005 80.8155 8.50005C80.7415 8.50005 80.6675 8.50534 80.5936 8.51591C79.7481 8.61102 79.3254 9.3191 79.3254 10.6401ZM80.8314 8.10374C81.4232 8.10374 81.9622 8.23585 82.4483 8.50005C82.5011 8.30982 82.5857 8.13016 82.7019 7.96107C83.0084 7.4855 83.41 7.24771 83.9067 7.24771C84.0335 7.24771 84.1551 7.26885 84.2713 7.31112C84.6095 7.43794 84.7786 7.67573 84.7786 8.02448C84.7786 8.05619 84.7733 8.09846 84.7628 8.1513C84.7099 8.41551 84.5514 8.54761 84.2872 8.54761C84.1815 8.54761 84.0705 8.49477 83.9543 8.38909C83.7746 8.21999 83.6108 8.13545 83.4629 8.13545C83.1775 8.16715 82.9556 8.36795 82.7971 8.73784C83.3889 9.20284 83.6901 9.83166 83.7006 10.6243C83.7006 11.2372 83.5051 11.7762 83.1141 12.2412C82.5434 12.8965 81.7719 13.2241 80.7996 13.2241H80.7521L79.3412 13.2082C79.2567 13.2082 79.1774 13.2188 79.1034 13.2399C78.7864 13.3033 78.6279 13.4671 78.6279 13.7314C78.6384 14.1012 78.8709 14.302 79.3254 14.3337L82.2898 14.3972C82.4377 14.3972 82.5804 14.4077 82.7178 14.4289C83.7852 14.5662 84.3189 15.1052 84.3189 16.0458C84.3189 16.3417 84.2343 16.6218 84.0652 16.886C83.5474 17.668 82.4747 18.0591 80.8472 18.0591C80.2025 18.0591 79.653 17.9639 79.1986 17.7737C78.501 17.4884 78.1523 17.0551 78.1523 16.4738C78.1523 16.1145 78.3214 15.7499 78.6596 15.38C78.2263 15.1052 78.0043 14.6878 77.9938 14.1277C77.9938 13.9691 78.0149 13.8159 78.0572 13.6679C78.2474 13.0973 78.6701 12.8119 79.3254 12.8119C79.2408 12.7591 79.151 12.7009 79.0559 12.6375C78.295 12.0986 77.9145 11.4328 77.9145 10.6401C77.9145 10.0483 78.0995 9.53046 78.4693 9.08659C79.0295 8.43136 79.8168 8.10374 80.8314 8.10374ZM80.8472 17.6469C81.3545 17.6469 81.8195 17.5993 82.2422 17.5042C83.1194 17.2929 83.558 16.9494 83.558 16.4738C83.558 16.3576 83.5368 16.2466 83.4946 16.1409C83.3677 15.845 82.9344 15.6918 82.1947 15.6812L79.5949 15.6495C79.4152 15.6495 79.2303 15.6231 79.04 15.5702C78.8181 15.845 78.7018 16.1198 78.6913 16.3946C78.6913 16.5425 78.7283 16.6905 78.8022 16.8384C79.0876 17.3774 79.7692 17.6469 80.8472 17.6469Z" fill="#619111"/>
<g clip-path="url(#clip0_1_370)">
<path d="M0.00678825 8.1725V8.25157C-0.0147743 6.09524 0.826195 3.97484 2.40032 2.40072C3.96007 0.84097 6.04452 0 8.17929 0H12.8154C14.9502 0 17.0274 0.84097 18.5872 2.39353C20.1541 3.96765 20.9879 6.08086 20.9671 8.24438V8.16532V12.8014V12.7224C20.9886 14.8787 20.1477 16.9991 18.5735 18.5732C16.9994 20.1473 14.8862 20.9811 12.7227 20.9667H12.8017H8.16563H8.2447C6.08837 20.9883 3.96797 20.1473 2.39385 18.5732C0.819727 16.9991 -0.0140572 14.8859 0.000318527 12.7224V12.8014L0.00750732 8.1725H0.00678825ZM0.251173 10.142C0.22961 10.0557 0.208046 9.97664 0.19367 9.89038C0.208046 9.97664 0.22961 10.0629 0.251173 10.142C0.272736 10.2282 0.287113 10.3073 0.2943 10.4007C0.272738 10.3145 0.265549 10.2282 0.251173 10.142ZM0.00678825 8.35939C0.00678825 8.4097 0.00678825 8.45283 0.0139751 8.49595C0.0139751 8.45283 0.0139771 8.4097 0.00678825 8.35939ZM0.0139751 8.61815C0.0139751 8.66846 0.0211639 8.71159 0.0211639 8.75471C0.0211639 8.71159 0.0139751 8.66127 0.0139751 8.61815ZM0.0283508 8.86972C0.0355396 8.91284 0.0355396 8.96316 0.0427284 8.9991C0.0427284 8.96316 0.0355396 8.92003 0.0283508 8.86972ZM0.136168 9.63881C0.143356 9.68194 0.150543 9.73225 0.164919 9.76819C0.157732 9.73225 0.143356 9.68194 0.136168 9.63881ZM15.5971 4.85175C15.1946 3.94609 14.6339 3.13387 13.9223 2.42228C13.0814 1.58131 12.0679 0.934411 10.961 0.531896C10.6591 0.416891 10.3284 0.416891 10.0194 0.531896C8.91244 0.934411 7.89178 1.58131 7.058 2.42228C6.34641 3.13387 5.78576 3.94609 5.38324 4.85175C5.32574 4.97394 5.44793 5.09613 5.57013 5.05301C7.03643 4.56424 8.63931 4.49236 10.1487 4.87331C10.3716 4.93082 10.6016 4.93082 10.8244 4.87331C12.3338 4.49955 13.9367 4.56424 15.403 5.05301C15.5324 5.10332 15.6546 4.98113 15.5971 4.85175ZM20.6932 10.4007C20.7004 10.3145 20.7148 10.2282 20.7363 10.142C20.7579 10.0557 20.7795 9.97664 20.7938 9.89038C20.7723 9.97664 20.7579 10.0557 20.7363 10.142C20.7076 10.2282 20.7004 10.3145 20.6932 10.4007ZM20.9592 8.50314C20.9592 8.45283 20.9663 8.4097 20.9663 8.36657C20.9592 8.4097 20.9592 8.45283 20.9592 8.50314ZM20.8585 9.50943C20.8657 9.4663 20.8729 9.42318 20.8801 9.38005C20.8729 9.43036 20.8657 9.47349 20.8585 9.50943ZM20.9304 9.00629C20.9376 8.96316 20.9376 8.91284 20.9448 8.87691C20.9376 8.92003 20.9304 8.96316 20.9304 9.00629ZM20.952 8.75471C20.952 8.7044 20.9592 8.66127 20.9592 8.61815C20.9592 8.66127 20.952 8.71159 20.952 8.75471ZM20.722 10.832C20.7435 10.9182 20.7651 10.9973 20.7795 11.0836C20.7651 10.9973 20.7435 10.911 20.722 10.832C20.7004 10.7457 20.686 10.6667 20.6788 10.5732C20.7004 10.6595 20.7076 10.7457 20.722 10.832ZM20.9671 12.6145C20.9671 12.5642 20.9671 12.5211 20.9599 12.478C20.9599 12.5211 20.9599 12.5642 20.9671 12.6145ZM20.9592 12.3558C20.9592 12.3055 20.952 12.2623 20.952 12.2192C20.952 12.2623 20.9592 12.3127 20.9592 12.3558ZM20.9448 12.1042C20.9376 12.0611 20.9376 12.0108 20.9304 11.9748C20.9304 12.0108 20.9376 12.0539 20.9448 12.1042ZM20.8801 11.5867C20.8729 11.5436 20.8657 11.5004 20.8585 11.4573C20.8657 11.5076 20.8729 11.5436 20.8801 11.5867ZM20.837 11.3351C20.8298 11.292 20.8226 11.2417 20.8082 11.2057C20.8154 11.2417 20.8298 11.292 20.837 11.3351ZM16.1002 10.142C16.0427 10.3648 16.0427 10.5948 16.1002 10.8176C16.474 12.327 16.4093 13.9299 15.9205 15.3962C15.8774 15.5256 16.0068 15.6406 16.1218 15.5831C17.0274 15.1806 17.8397 14.6199 18.5513 13.9083C19.3922 13.0674 20.0391 12.0539 20.4416 10.947C20.5566 10.6451 20.5566 10.3145 20.4416 10.0054C20.0391 8.89847 19.3922 7.8778 18.5513 7.04402C17.8397 6.33243 17.0274 5.77179 16.1218 5.36927C15.9996 5.31177 15.8774 5.43396 15.9205 5.55615C16.4093 7.04402 16.4668 8.63252 16.1002 10.142ZM10.8316 20.7224C10.9178 20.7439 10.9969 20.7655 11.0832 20.7799C10.9969 20.7655 10.9106 20.7439 10.8316 20.7224C10.7453 20.7008 10.6663 20.6864 10.5728 20.6792C10.6591 20.7008 10.7453 20.708 10.8316 20.7224ZM12.6141 20.9667C12.5638 20.9667 12.5207 20.9667 12.4776 20.9596C12.5207 20.9596 12.5638 20.9596 12.6141 20.9667ZM12.3554 20.9596C12.3051 20.9596 12.2619 20.9524 12.2188 20.9524C12.2619 20.9524 12.3123 20.9596 12.3554 20.9596ZM12.1038 20.9452C12.0607 20.938 12.0104 20.938 11.9744 20.9308C12.0104 20.9308 12.0535 20.938 12.1038 20.9452ZM11.3347 20.8374C11.2916 20.8302 11.2413 20.823 11.2053 20.8086C11.2413 20.8158 11.2916 20.8302 11.3347 20.8374ZM10.4003 20.6936C10.3141 20.7008 10.2278 20.7152 10.1416 20.7367C10.0553 20.7583 9.97623 20.7799 9.88998 20.7942C9.97623 20.7727 10.0553 20.7583 10.1416 20.7367C10.2278 20.708 10.3141 20.7008 10.4003 20.6936ZM8.50274 20.9596C8.45243 20.9596 8.4093 20.9667 8.36617 20.9667C8.4093 20.9596 8.45243 20.9596 8.50274 20.9596ZM9.50903 20.8589C9.4659 20.8661 9.42277 20.8733 9.37965 20.8805C9.42996 20.8733 9.47309 20.8661 9.50903 20.8589ZM9.00588 20.9308C8.96276 20.938 8.91244 20.938 8.8765 20.9452C8.91963 20.938 8.96276 20.9308 9.00588 20.9308ZM8.75431 20.9524C8.704 20.9524 8.66087 20.9596 8.61774 20.9596C8.66087 20.9596 8.71118 20.9524 8.75431 20.9524ZM5.37606 16.1222C5.77857 17.0278 6.33922 17.8401 7.05081 18.5517C7.89178 19.3926 8.90525 20.0395 10.0122 20.442C10.3141 20.557 10.6447 20.557 10.9538 20.442C12.0607 20.0395 13.0814 19.3926 13.9151 18.5517C14.6267 17.8401 15.1874 17.0207 15.5899 16.1222C15.6474 16 15.5252 15.8778 15.403 15.9209C13.9367 16.4169 12.3338 16.4816 10.8244 16.1006C10.6016 16.0431 10.3716 16.0431 10.1487 16.1006C8.63931 16.4816 7.03643 16.4097 5.57013 15.9209C5.44075 15.8706 5.31855 15.9928 5.37606 16.1222ZM5.16042 10.9542C5.56294 12.0611 6.20984 13.0818 7.05081 13.9155C7.89178 14.7565 8.90525 15.4034 10.0122 15.8059C10.3141 15.9209 10.6447 15.9209 10.9538 15.8059C12.0607 15.4034 13.0814 14.7565 13.9151 13.9155C14.7561 13.0818 15.4102 12.0683 15.8055 10.9542C15.9205 10.6523 15.9205 10.3216 15.8055 10.0126C15.403 8.90566 14.7561 7.88499 13.9151 7.05121C13.0742 6.21743 12.0607 5.56334 10.9538 5.16082C10.6519 5.04582 10.3212 5.04582 10.0122 5.16082C8.90525 5.56334 7.88459 6.21024 7.05081 7.05121C6.20984 7.89218 5.56294 8.90566 5.16042 10.0126C5.05979 10.3216 5.05979 10.6523 5.16042 10.9542ZM0.531496 10.9542C0.934011 12.0611 1.58091 13.0818 2.42188 13.9155C3.13347 14.6271 3.94569 15.1878 4.85135 15.5903C4.97354 15.6478 5.09573 15.5256 5.05261 15.4034C4.56384 13.9371 4.49196 12.3342 4.87291 10.8248C4.93041 10.602 4.93041 10.372 4.87291 10.1491C4.49915 8.63971 4.56384 7.03683 5.05261 5.57053C5.09573 5.44115 4.96635 5.32614 4.85135 5.38365C3.94569 5.78616 3.13347 6.34681 2.42188 7.0584C1.58091 7.89937 0.934011 8.91284 0.531496 10.0198C0.423679 10.3216 0.423679 10.6523 0.531496 10.9542ZM0.279924 10.5732C0.272736 10.6595 0.25836 10.7457 0.236797 10.832C0.215233 10.9182 0.19367 10.9973 0.179295 11.0836C0.200859 10.9973 0.215233 10.9182 0.236797 10.832C0.265549 10.7457 0.272736 10.6595 0.279924 10.5732ZM0.0139751 12.4708C0.0139751 12.5211 0.00678825 12.5642 0.00678825 12.6074C0.0139771 12.5642 0.0139751 12.5211 0.0139751 12.4708ZM0.114605 11.4645C0.107418 11.5076 0.100229 11.5508 0.0930405 11.5939C0.100229 11.5436 0.107418 11.5076 0.114605 11.4645ZM0.0427284 11.9677C0.0355396 12.0108 0.0355396 12.0611 0.0283508 12.097C0.0355396 12.0539 0.0427284 12.0108 0.0427284 11.9677ZM0.0211639 12.2192C0.0211639 12.2695 0.0139751 12.3127 0.0139751 12.3558C0.0139751 12.3127 0.0211639 12.2623 0.0211639 12.2192Z" fill="#619111"/>
</g>
<defs>
<clipPath id="clip0_1_370">
<rect width="20.9675" height="20.9675" fill="white" transform="matrix(-1 0 0 1 20.9675 0)"/>
</clipPath>
</defs>
</svg>
