<svg width="96" height="18" viewBox="0 0 96 18" fill="none" xmlns="http://www.w3.org/2000/svg">
<path d="M16.2324 4.73438L10.5293 15.5566H0L2.85156 10.1455H10.1455V4.73438H16.2324ZM10.1455 0V4.73438H5.70312L2.85156 10.1455H0V0H10.1455Z" fill="#619111"/>
<path d="M26.4213 15V3.47466H30.5607C31.9459 3.47466 32.9902 3.72356 33.6936 4.22137C34.397 4.71918 34.7488 5.50918 34.7488 6.59137C34.7488 7.07836 34.646 7.50582 34.4403 7.87377C34.2347 8.24171 33.9317 8.5339 33.5313 8.75034C33.1417 8.95596 32.6764 9.06418 32.1353 9.075L32.119 9.01007C33.1038 9.03171 33.8668 9.30226 34.4079 9.82171C34.9598 10.3303 35.2357 11.0013 35.2357 11.8346C35.2357 12.8843 34.884 13.6743 34.1806 14.2046C33.4772 14.7349 32.4762 15 31.1775 15H26.4213ZM28.1744 13.4254H31.1288C31.8539 13.4254 32.4166 13.2793 32.817 12.9871C33.2283 12.6841 33.4339 12.2458 33.4339 11.6723C33.4339 11.1095 33.2283 10.6712 32.817 10.3574C32.4166 10.0436 31.8539 9.88664 31.1288 9.88664H28.1744V13.4254ZM28.1744 8.39322H30.5282C31.2966 8.39322 31.8918 8.24712 32.3138 7.95493C32.7359 7.66274 32.9469 7.25151 32.9469 6.72123C32.9469 6.15849 32.7413 5.74185 32.3301 5.4713C31.9297 5.18993 31.329 5.04925 30.5282 5.04925H28.1744V8.39322ZM39.0952 15.1948C38.2295 15.1948 37.5369 14.908 37.0174 14.3345C36.5088 13.7501 36.2545 12.9438 36.2545 11.9158V6.36411H37.9752V11.4775C37.9752 12.2566 38.1104 12.8302 38.381 13.1982C38.6515 13.5661 39.0628 13.7501 39.6147 13.7501C40.2424 13.7501 40.7294 13.5499 41.0757 13.1495C41.4328 12.7382 41.6113 12.1647 41.6113 11.4288V6.36411H43.332V15H41.725L41.6925 12.7436L41.936 12.841C41.7845 13.5986 41.4652 14.1829 40.9783 14.5942C40.4913 14.9946 39.8636 15.1948 39.0952 15.1948ZM44.5859 15V6.36411H46.3066V15H44.5859ZM44.5534 5.11418V3.39349H46.339V5.11418H44.5534ZM49.5214 15C48.9587 15 48.5042 14.8539 48.1579 14.5617C47.8116 14.2695 47.6384 13.8042 47.6384 13.1657V3.47466H49.3591V13.0034C49.3591 13.1982 49.4078 13.3442 49.5052 13.4416C49.6134 13.539 49.7649 13.5877 49.9597 13.5877H50.6415V15H49.5214ZM54.2028 15.1948C53.467 15.1948 52.8231 15.0108 52.2711 14.6429C51.73 14.2749 51.3134 13.7555 51.0212 13.0845C50.7398 12.4027 50.5992 11.6019 50.5992 10.6821C50.5992 9.76219 50.7452 8.96678 51.0374 8.29582C51.3296 7.61404 51.7463 7.08918 52.2874 6.72123C52.8285 6.35329 53.467 6.16932 54.2028 6.16932C54.7981 6.16932 55.3283 6.29377 55.7937 6.54267C56.259 6.79158 56.6107 7.13788 56.8488 7.58158V3.47466H58.5695V15H56.9624L56.9137 13.7014C56.6757 14.1667 56.3131 14.5347 55.8261 14.8052C55.35 15.0649 54.8089 15.1948 54.2028 15.1948ZM54.6574 13.7014C55.1227 13.7014 55.5177 13.5823 55.8424 13.3442C56.167 13.1062 56.4159 12.7599 56.5891 12.3053C56.7622 11.8508 56.8488 11.3097 56.8488 10.6821C56.8488 10.0327 56.7622 9.48623 56.5891 9.04253C56.4159 8.58801 56.167 8.24712 55.8424 8.01986C55.5177 7.78178 55.1227 7.66274 54.6574 7.66274C53.9648 7.66274 53.4128 7.93329 53.0016 8.47438C52.5904 9.00466 52.3848 9.74055 52.3848 10.6821C52.3848 11.6127 52.5904 12.3486 53.0016 12.8897C53.4128 13.4308 53.9648 13.7014 54.6574 13.7014ZM59.9301 15V3.47466H64.524C65.3465 3.47466 66.0553 3.61534 66.6505 3.89671C67.2458 4.17808 67.7057 4.57849 68.0303 5.09795C68.355 5.6174 68.5173 6.23425 68.5173 6.94849C68.5173 7.46795 68.3983 7.93329 68.1602 8.34452C67.9329 8.75575 67.6245 9.08582 67.2349 9.33473C66.8562 9.57281 66.4503 9.70808 66.0175 9.74055L65.9363 9.59445C66.6614 9.59445 67.2241 9.76219 67.6245 10.0977C68.0249 10.4223 68.2576 10.9364 68.3225 11.6398L68.631 15H66.8616L66.5856 11.8671C66.5531 11.4017 66.3962 11.0608 66.1149 10.8444C65.8335 10.6171 65.3736 10.5035 64.7351 10.5035H61.6833V15H59.9301ZM61.6833 8.89644H64.5565C65.2166 8.89644 65.7361 8.73411 66.1149 8.40945C66.5044 8.07397 66.6992 7.60322 66.6992 6.99719C66.6992 6.38034 66.5044 5.90959 66.1149 5.58493C65.7253 5.24945 65.1571 5.08171 64.4104 5.08171H61.6833V8.89644ZM69.8109 15V6.36411H71.5316V15H69.8109ZM69.7784 5.11418V3.39349H71.564V5.11418H69.7784ZM76.3056 17.6297C75.6238 17.6297 75.0232 17.5269 74.5037 17.3213C73.9843 17.1157 73.5568 16.8235 73.2213 16.4447C72.8858 16.0768 72.6586 15.6439 72.5395 15.1461L74.3251 15.0325C74.4442 15.3896 74.6498 15.671 74.942 15.8766C75.245 16.093 75.6995 16.2012 76.3056 16.2012C77.0198 16.2012 77.5663 16.0497 77.9451 15.7467C78.3347 15.4437 78.5295 14.9838 78.5295 14.3669V13.117C78.3238 13.5607 77.9938 13.9124 77.5393 14.1721C77.0847 14.4318 76.5761 14.5617 76.0134 14.5617C75.2883 14.5617 74.6444 14.3832 74.0817 14.026C73.5189 13.6689 73.0806 13.1765 72.7668 12.5488C72.453 11.9212 72.296 11.1961 72.296 10.3736C72.296 9.54034 72.4475 8.80986 72.7506 8.18219C73.0644 7.55452 73.4973 7.06212 74.0492 6.705C74.6119 6.34788 75.245 6.16932 75.9484 6.16932C76.5653 6.16932 77.1064 6.31 77.5717 6.59137C78.0479 6.87274 78.3888 7.25151 78.5944 7.72767V6.36411H80.2501V14.3182C80.2501 15.0325 80.0878 15.6331 79.7632 16.1201C79.4493 16.6179 78.9948 16.9912 78.3996 17.2401C77.8152 17.4999 77.1172 17.6297 76.3056 17.6297ZM76.2893 13.1008C76.9603 13.1008 77.496 12.8573 77.8964 12.3703C78.3076 11.8833 78.5186 11.2123 78.5295 10.3574C78.5403 9.79466 78.4537 9.31308 78.2697 8.91267C78.0858 8.50144 77.8206 8.1876 77.4743 7.97116C77.1388 7.7439 76.7438 7.63027 76.2893 7.63027C75.5859 7.63027 75.0394 7.87918 74.6498 8.37699C74.271 8.86397 74.0817 9.52411 74.0817 10.3574C74.0817 11.2015 74.2764 11.8725 74.666 12.3703C75.0664 12.8573 75.6075 13.1008 76.2893 13.1008ZM81.5119 15V3.47466H83.2326V8.31205L83.0215 8.27959C83.1189 7.7926 83.2975 7.3976 83.5572 7.09459C83.8169 6.78075 84.1362 6.54808 84.515 6.39658C84.8937 6.24507 85.3104 6.16932 85.7649 6.16932C86.3926 6.16932 86.9228 6.31 87.3557 6.59137C87.7886 6.86192 88.1132 7.2461 88.3297 7.7439C88.5569 8.24171 88.6706 8.80986 88.6706 9.44836V15H86.9499V9.90288C86.9499 9.1237 86.8146 8.55014 86.5441 8.18219C86.2843 7.80342 85.8731 7.61404 85.3104 7.61404C84.6827 7.61404 84.1795 7.81425 83.8007 8.21466C83.4219 8.60425 83.2326 9.17781 83.2326 9.93534V15H81.5119ZM92.8219 15C91.9994 15 91.3934 14.8106 91.0038 14.4318C90.6142 14.0531 90.4194 13.4633 90.4194 12.6625V4.335H92.1401V12.5326C92.1401 12.933 92.2267 13.209 92.3998 13.3605C92.573 13.512 92.8381 13.5877 93.1952 13.5877H94.4289V15H92.8219ZM89.1045 7.77637V6.36411H94.4289V7.77637H89.1045Z" fill="#619111"/>
</svg>
