<svg width="80" height="22" viewBox="0 0 80 22" fill="none" xmlns="http://www.w3.org/2000/svg">
<path d="M16.2323 5.41102C19.2204 8.39935 19.2199 13.2441 16.2316 16.2324C13.2434 19.2204 8.39922 19.2204 5.41096 16.2324C2.42271 13.2441 2.42215 8.39935 5.41026 5.41102C8.39858 2.42271 13.244 2.42271 16.2323 5.41102ZM12.0604 5.98443C11.376 5.30011 10.2665 5.30011 9.58221 5.98443L5.98505 9.58158C5.30073 10.2659 5.30073 11.3754 5.98505 12.0597L9.58221 15.6569C10.2665 16.3412 11.376 16.3412 12.0604 15.6569L15.6575 12.0597C16.3419 11.3754 16.3419 10.2659 15.6575 9.58158L12.0604 5.98443Z" fill="#619111"/>
<path d="M23.072 16.8214V4.87468H24.89V16.8214H23.072ZM23.9377 11.8696V10.2074H30.4305V11.8696H23.9377ZM23.9377 6.53684V4.87468H31.1231V6.53684H23.9377ZM32.0091 16.8214V4.44183H33.7405V16.8214H32.0091ZM38.8563 16.9946C38.0367 16.9946 37.3095 16.7983 36.6747 16.4059C36.0514 16.0134 35.5608 15.4594 35.203 14.7437C34.8452 14.0281 34.6663 13.1912 34.6663 12.2332C34.6663 11.2636 34.8452 10.4267 35.203 9.72263C35.5608 9.00698 36.0514 8.45293 36.6747 8.06048C37.3095 7.66802 38.0367 7.4718 38.8563 7.4718C39.6873 7.4718 40.4145 7.66802 41.0378 8.06048C41.6727 8.45293 42.169 9.00698 42.5269 9.72263C42.8847 10.4267 43.0636 11.2636 43.0636 12.2332C43.0636 13.1912 42.8847 14.0281 42.5269 14.7437C42.169 15.4594 41.6727 16.0134 41.0378 16.4059C40.4145 16.7983 39.6873 16.9946 38.8563 16.9946ZM38.8563 15.4363C39.5835 15.4363 40.1664 15.1823 40.605 14.6745C41.0436 14.155 41.2629 13.3413 41.2629 12.2332C41.2629 11.1251 41.0436 10.3171 40.605 9.8092C40.1664 9.28978 39.5835 9.03007 38.8563 9.03007C38.1406 9.03007 37.5635 9.28978 37.1249 9.8092C36.6862 10.3171 36.4669 11.1251 36.4669 12.2332C36.4669 13.3413 36.6862 14.155 37.1249 14.6745C37.5635 15.1823 38.1406 15.4363 38.8563 15.4363ZM45.2893 16.8214L43.0211 7.64494H44.7698L46.9168 16.8214H45.2893ZM46.2589 16.8214L48.4231 7.64494H49.8948L47.7479 16.8214H46.2589ZM51.2453 16.8214L49.0984 7.64494H50.6566L52.8728 16.8214H51.2453ZM52.2149 16.8214L54.2926 7.64494H55.9721L53.7039 16.8214H52.2149ZM60.8646 16.9946C59.8951 16.9946 59.1159 16.6483 58.5272 15.9557C57.9386 15.2516 57.6442 14.2647 57.6442 12.995V11.4714C57.6442 10.2017 57.9386 9.22052 58.5272 8.52796C59.1159 7.82385 59.8951 7.4718 60.8646 7.4718C61.5803 7.4718 62.2094 7.66225 62.7519 8.04316C63.3059 8.42407 63.7388 8.97235 64.0504 9.688C64.3621 10.3921 64.5179 11.2405 64.5179 12.2332C64.5179 13.2259 64.3621 14.08 64.0504 14.7957C63.7388 15.4998 63.3059 16.0423 62.7519 16.4232C62.2094 16.8041 61.5803 16.9946 60.8646 16.9946ZM56.3976 16.8214V4.44183H58.129V9.75726L57.8693 12.2332L58.129 14.6918V16.8214H56.3976ZM60.3799 15.4709C61.0724 15.4709 61.6322 15.217 62.0593 14.7091C62.4979 14.1897 62.7173 13.3644 62.7173 12.2332C62.7173 11.102 62.4979 10.2825 62.0593 9.77457C61.6322 9.25515 61.0724 8.99544 60.3799 8.99544C59.6873 8.99544 59.1217 9.25515 58.6831 9.77457C58.256 10.2825 58.0424 11.102 58.0424 12.2332C58.0424 13.3644 58.256 14.1897 58.6831 14.7091C59.1217 15.217 59.6873 15.4709 60.3799 15.4709ZM69.1627 16.9946C68.3432 16.9946 67.616 16.7983 66.9811 16.4059C66.3578 16.0134 65.8672 15.4594 65.5094 14.7437C65.1516 14.0281 64.9727 13.1912 64.9727 12.2332C64.9727 11.2636 65.1516 10.4267 65.5094 9.72263C65.8672 9.00698 66.3578 8.45293 66.9811 8.06048C67.616 7.66802 68.3432 7.4718 69.1627 7.4718C69.9938 7.4718 70.721 7.66802 71.3443 8.06048C71.9791 8.45293 72.4755 9.00698 72.8333 9.72263C73.1911 10.4267 73.37 11.2636 73.37 12.2332C73.37 13.1912 73.1911 14.0281 72.8333 14.7437C72.4755 15.4594 71.9791 16.0134 71.3443 16.4059C70.721 16.7983 69.9938 16.9946 69.1627 16.9946ZM69.1627 15.4363C69.8899 15.4363 70.4728 15.1823 70.9114 14.6745C71.35 14.155 71.5694 13.3413 71.5694 12.2332C71.5694 11.1251 71.35 10.3171 70.9114 9.8092C70.4728 9.28978 69.8899 9.03007 69.1627 9.03007C68.447 9.03007 67.8699 9.28978 67.4313 9.8092C66.9927 10.3171 66.7734 11.1251 66.7734 12.2332C66.7734 13.3413 66.9927 14.155 67.4313 14.6745C67.8699 15.1823 68.447 15.4363 69.1627 15.4363ZM77.4829 16.9946C76.5826 16.9946 75.8785 16.7579 75.3706 16.2847C74.8743 15.7999 74.6261 15.0842 74.6261 14.1377V5.74039L76.3575 5.39411V13.8261C76.3575 14.357 76.4845 14.7495 76.7384 15.0034C76.9924 15.2458 77.3617 15.367 77.8465 15.367C78.0774 15.367 78.2909 15.3497 78.4871 15.3151C78.6949 15.2805 78.8969 15.2401 79.0931 15.1939V16.8214C78.8507 16.8791 78.6026 16.9195 78.3486 16.9426C78.1062 16.9772 77.8177 16.9946 77.4829 16.9946ZM73.3275 9.15127V7.64494H79.0066V9.15127H73.3275Z" fill="#619111"/>
</svg>
